<?xml version="1.0" encoding="UTF-8"?>
<svg width="400" height="400" viewBox="0 0 400 400" xmlns="http://www.w3.org/2000/svg">
  <defs>
    <!-- Gold Gradient -->
    <linearGradient id="gold" x1="0%" y1="0%" x2="100%" y2="100%">
      <stop offset="0%" style="stop-color:#f4d03f"/>
      <stop offset="50%" style="stop-color:#eab308"/>
      <stop offset="100%" style="stop-color:#c2910a"/>
    </linearGradient>
    
    <!-- Navy -->
    <radialGradient id="navy" cx="50%" cy="40%">
      <stop offset="0%" style="stop-color:#0d3a5f"/>
      <stop offset="100%" style="stop-color:#0a2540"/>
    </radialGradient>
  </defs>
  
  <!-- Outer gold ring -->
  <circle cx="200" cy="200" r="195" fill="none" stroke="url(#gold)" stroke-width="10"/>
  <circle cx="200" cy="200" r="190" fill="none" stroke="#c2910a" stroke-width="1"/>
  <circle cx="200" cy="200" r="200" fill="none" stroke="#f4d03f" stroke-width="1" opacity="0.6"/>
  
  <!-- Inner navy circle -->
  <circle cx="200" cy="200" r="175" fill="url(#navy)"/>
  
  <!-- Inner gold border -->
  <circle cx="200" cy="200" r="175" fill="none" stroke="url(#gold)" stroke-width="3"/>
  
  <!-- Top stars (5 stars) -->
  <g fill="url(#gold)">
    <polygon points="200,60 202,67 209,67 203,72 205,79 200,74 195,79 197,72 191,67 198,67" transform="translate(0,0)"/>
    <polygon points="200,60 202,66 208,66 203,70 205,76 200,72 195,76 197,70 192,66 198,66" transform="translate(-40,10) scale(0.8)"/>
    <polygon points="200,60 202,66 208,66 203,70 205,76 200,72 195,76 197,70 192,66 198,66" transform="translate(40,10) scale(0.8)"/>
    <polygon points="200,60 202,65 207,65 203,68 204,73 200,70 196,73 197,68 193,65 198,65" transform="translate(-75,25) scale(0.7)"/>
    <polygon points="200,60 202,65 207,65 203,68 204,73 200,70 196,73 197,68 193,65 198,65" transform="translate(75,25) scale(0.7)"/>
  </g>
  
  <!-- Laurel wreaths -->
  <g fill="url(#gold)">
    <!-- Left laurel -->
    <ellipse cx="110" cy="165" rx="6" ry="12" transform="rotate(-40 110 165)"/>
    <ellipse cx="105" cy="180" rx="6" ry="12" transform="rotate(-30 105 180)"/>
    <ellipse cx="103" cy="195" rx="6" ry="12" transform="rotate(-20 103 195)"/>
    <ellipse cx="105" cy="210" rx="6" ry="12" transform="rotate(-10 105 210)"/>
    <ellipse cx="110" cy="225" rx="6" ry="12" transform="rotate(0 110 225)"/>
    <ellipse cx="118" cy="238" rx="6" ry="12" transform="rotate(10 118 238)"/>
    <ellipse cx="128" cy="248" rx="6" ry="12" transform="rotate(20 128 248)"/>
    <ellipse cx="140" cy="255" rx="6" ry="12" transform="rotate(30 140 255)"/>
    
    <!-- Right laurel (mirrored) -->
    <ellipse cx="290" cy="165" rx="6" ry="12" transform="rotate(40 290 165)"/>
    <ellipse cx="295" cy="180" rx="6" ry="12" transform="rotate(30 295 180)"/>
    <ellipse cx="297" cy="195" rx="6" ry="12" transform="rotate(20 297 195)"/>
    <ellipse cx="295" cy="210" rx="6" ry="12" transform="rotate(10 295 210)"/>
    <ellipse cx="290" cy="225" rx="6" ry="12" transform="rotate(0 290 225)"/>
    <ellipse cx="282" cy="238" rx="6" ry="12" transform="rotate(-10 282 238)"/>
    <ellipse cx="272" cy="248" rx="6" ry="12" transform="rotate(-20 272 248)"/>
    <ellipse cx="260" cy="255" rx="6" ry="12" transform="rotate(-30 260 255)"/>
  </g>
  
  <!-- Laurel stems -->
  <path d="M 150,260 Q 130,250 115,225 Q 105,200 103,170" fill="none" stroke="url(#gold)" stroke-width="3"/>
  <path d="M 250,260 Q 270,250 285,225 Q 295,200 297,170" fill="none" stroke="url(#gold)" stroke-width="3"/>
  
  <!-- Text paths -->
  <defs>
    <path id="topCurve" d="M 50,200 A 150,150 0 0,1 350,200" fill="none"/>
    <path id="bottomCurve" d="M 350,200 A 150,150 0 0,1 50,200" fill="none"/>
    <path id="leftCurve" d="M 105,320 A 150,150 0 0,0 50,200" fill="none"/>
    <path id="rightCurve" d="M 350,200 A 150,150 0 0,0 295,320" fill="none"/>
  </defs>
  
  <!-- Top text: ARMENIAN COLLEGE -->
  <text font-family="Inter, Arial, sans-serif" font-size="22" font-weight="800" fill="white" letter-spacing="4">
    <textPath href="#topCurve" startOffset="50%" text-anchor="middle">
      ARMENIAN COLLEGE
    </textPath>
  </text>
  
  <!-- Left text: OF NURSING -->
  <text font-family="Inter, Arial, sans-serif" font-size="22" font-weight="800" fill="white" letter-spacing="3">
    <textPath href="#leftCurve" startOffset="50%" text-anchor="middle">
      OF NURSING
    </textPath>
  </text>
  
  <!-- Right text: & HEALTH SCIENCES -->
  <text font-family="Inter, Arial, sans-serif" font-size="20" font-weight="800" fill="white" letter-spacing="2">
    <textPath href="#rightCurve" startOffset="50%" text-anchor="middle">
      & HEALTH SCIENCES
    </textPath>
  </text>
  
  <!-- Side stars -->
  <g fill="url(#gold)">
    <!-- Left stars -->
    <polygon points="45,140 46,144 50,144 47,147 48,151 45,148 42,151 43,147 40,144 44,144" transform="scale(1.2)"/>
    <polygon points="45,180 46,183 49,183 47,185 48,188 45,186 42,188 43,185 41,183 44,183" transform="scale(1.1)"/>
    <polygon points="45,220 46,223 49,223 47,225 48,228 45,226 42,228 43,225 41,223 44,223"/>
    <polygon points="45,260 46,263 49,263 47,265 48,268 45,266 42,268 43,265 41,263 44,263" transform="scale(0.9)"/>
    
    <!-- Right stars (mirrored) -->
    <polygon points="355,140 354,144 350,144 353,147 352,151 355,148 358,151 357,147 360,144 356,144" transform="scale(1.2)"/>
    <polygon points="355,180 354,183 351,183 353,185 352,188 355,186 358,188 357,185 359,183 356,183" transform="scale(1.1)"/>
    <polygon points="355,220 354,223 351,223 353,225 352,228 355,226 358,228 357,225 359,223 356,223"/>
    <polygon points="355,260 354,263 351,263 353,265 352,268 355,266 358,268 357,265 359,263 356,263" transform="scale(0.9)"/>
  </g>
  
  <!-- Center ACNHS -->
  <text x="200" y="210" font-family="Inter, serif" font-size="52" font-weight="900" 
        fill="url(#gold)" text-anchor="middle" letter-spacing="5">
    ACNHS
  </text>
  
  <!-- Decorative line -->
  <line x1="150" y1="218" x2="250" y2="218" stroke="url(#gold)" stroke-width="2"/>
  
  <!-- Location -->
  <text x="200" y="242" font-family="Inter, sans-serif" font-size="16" font-weight="700" 
        fill="url(#gold)" text-anchor="middle" letter-spacing="3">
    YEREVAN · ARMENIA
  </text>
  
  <!-- Established -->
  <text x="200" y="264" font-family="Inter, sans-serif" font-size="16" font-weight="700" 
        fill="url(#gold)" text-anchor="middle" letter-spacing="2">
    EST. 2025
  </text>
</svg>
